<svg xmlns="http://www.w3.org/2000/svg" viewBox="0 0 133.31 47.6">
  <defs>
    <style>
      .cls-1 {
        fill: #a5ff7f;
      }
    </style>
  </defs>
  <g id="metadex_logo" transform="translate(-653 -30)">
    <g id="Group_64" data-name="Group 64" transform="translate(670.713 40.921)">
      <path id="Path_1" data-name="Path 1" d="M13.244,36.69a.384.384,0,0,1-.425.425H11.725a.415.415,0,0,1-.425-.425V12.025a.384.384,0,0,1,.425-.425h1.337a.633.633,0,0,1,.608.425l4.86,14.641a3.537,3.537,0,0,1,.182,1.154h.061a8.3,8.3,0,0,1,.122-1.154l4.86-14.641A.584.584,0,0,1,24.3,11.6h1.4a.415.415,0,0,1,.425.425V36.69a.415.415,0,0,1-.425.425H24.6a.415.415,0,0,1-.425-.425V17.25A8.3,8.3,0,0,1,24.3,16.1H24.24A9.87,9.87,0,0,1,24,17.25L19.562,30.615a.6.6,0,0,1-.608.425h-.547a.52.52,0,0,1-.547-.425L13.426,17.25a6.453,6.453,0,0,1-.243-1.154h-.061a8.3,8.3,0,0,1,.122,1.154Z" transform="translate(-11.3 -11.6)"/>
      <path id="Path_2" data-name="Path 2" d="M45.423,31.518v5.1a2.041,2.041,0,0,0,2.187,2.187h2.309a2.026,2.026,0,0,0,2.187-2.126V35.406a.384.384,0,0,1,.425-.425h1.154a.415.415,0,0,1,.425.425V36.56a3.89,3.89,0,0,1-4.131,4.131H47.731A3.922,3.922,0,0,1,43.6,36.56V24.531A3.89,3.89,0,0,1,47.731,20.4h2.187a3.875,3.875,0,0,1,4.131,4.07v6.622a.384.384,0,0,1-.425.425Zm2.187-9.234a2.026,2.026,0,0,0-2.187,2.126v5.225h6.622V24.41a2.026,2.026,0,0,0-2.187-2.126Z" transform="translate(-23.977 -15.054)"/>
      <path id="Path_3" data-name="Path 3" d="M64.8,18.67a.384.384,0,0,1,.425-.425h2.309v-3.22a.415.415,0,0,1,.425-.425h1.094a.415.415,0,0,1,.425.425v3.22h3.159a.415.415,0,0,1,.425.425V19.7a.384.384,0,0,1-.425.425H69.478V34.405a2.026,2.026,0,0,0,2.187,2.126h.972a.415.415,0,0,1,.425.425v1.033a.384.384,0,0,1-.425.425h-.972a3.922,3.922,0,0,1-4.131-4.131V20.068H65.225a.384.384,0,0,1-.425-.425V18.67Z" transform="translate(-32.298 -12.777)"/>
      <path id="Path_4" data-name="Path 4" d="M91.687,38.868a10.01,10.01,0,0,1-4.921,1.944A3.79,3.79,0,0,1,83,36.742V32.854a3.971,3.971,0,0,1,4.131-4.192,26.875,26.875,0,0,1,4.5.608V24.653a2.159,2.159,0,0,0-2.248-2.43h-2a2.159,2.159,0,0,0-2.248,2.43v.911a.384.384,0,0,1-.425.425H83.608a.384.384,0,0,1-.425-.425V24.531A3.89,3.89,0,0,1,87.313,20.4H89.44a3.89,3.89,0,0,1,4.131,4.131V40.144a.415.415,0,0,1-.425.425H92.113a.384.384,0,0,1-.425-.425Zm0-7.776a21.516,21.516,0,0,0-4.253-.668A2.328,2.328,0,0,0,85,32.854V36.8a2.054,2.054,0,0,0,2.187,2.126c1.519,0,3.524-1.4,4.5-2.126Z" transform="translate(-39.441 -15.054)"/>
      <path id="Path_5" data-name="Path 5" d="M118.349,11.6a.415.415,0,0,1,.425.425V36.69a.415.415,0,0,1-.425.425h-1.094a.415.415,0,0,1-.425-.425v-1.4c-.911.608-3.22,2.066-5.225,2.066a3.834,3.834,0,0,1-3.706-4.131V20.956c0-2.491,1.64-4.131,3.706-4.131,1.944,0,4.313,1.458,5.225,2.066V12.025a.415.415,0,0,1,.425-.425Zm-1.519,9.295c-.911-.668-3.159-2.248-4.8-2.248a2.183,2.183,0,0,0-2.248,2.309V33.228a2.151,2.151,0,0,0,2.248,2.309c1.58,0,3.888-1.58,4.8-2.248Z" transform="translate(-49.214 -11.6)"/>
      <path id="Path_6" data-name="Path 6" d="M135.144,31.518v5.1a2.041,2.041,0,0,0,2.187,2.187h2.248a2.026,2.026,0,0,0,2.187-2.126V35.406a.384.384,0,0,1,.425-.425h1.154a.415.415,0,0,1,.425.425V36.56a3.89,3.89,0,0,1-4.131,4.131h-2.309A3.922,3.922,0,0,1,133.2,36.56V24.531a3.89,3.89,0,0,1,4.131-4.131h2.248a3.875,3.875,0,0,1,4.131,4.07v6.622a.384.384,0,0,1-.425.425Zm2.187-9.234a2.026,2.026,0,0,0-2.187,2.126v5.225h6.622V24.41a2.026,2.026,0,0,0-2.187-2.126Z" transform="translate(-59.144 -15.054)"/>
      <path id="Path_7" data-name="Path 7" d="M163.886,20.925a.731.731,0,0,1,.608-.425h1.215c.243,0,.365.122.243.425l-4.678,9.416,4.617,9.781c.122.243.061.425-.243.425h-1.215a.633.633,0,0,1-.608-.425l-3.4-7.29a1.308,1.308,0,0,1-.122-.668h-.061c-.061.182-.061.486-.122.668l-3.584,7.29a.732.732,0,0,1-.608.425h-1.215c-.243,0-.365-.122-.243-.425l4.86-9.781-4.556-9.416c-.122-.243,0-.425.243-.425h1.215a.633.633,0,0,1,.608.425l3.281,6.926a2.184,2.184,0,0,1,.121.668h.061a1.2,1.2,0,0,1,.121-.668Z" transform="translate(-67.473 -15.093)"/>
    </g>
    <path id="Path_8" data-name="Path 8" class="cls-1" d="M133.31,47.6H0V0H133.31ZM1.442,46.149H131.868V1.451H1.442Z" transform="translate(653 30)"/>
  </g>
</svg>
