<svg xmlns="http://www.w3.org/2000/svg" viewBox="0 0 20 19.626">
  <defs>
    <style>
      .cls-1 {
        fill: #373a3c;
      }
    </style>
  </defs>
  <g id="icon_edit" transform="translate(0 0)">
    <path id="Path_23" data-name="Path 23" class="cls-1" d="M24.97,114.3H6.4a.7.7,0,0,0-.7.7.711.711,0,0,0,.7.7H24.987a.7.7,0,0,0,.7-.7A.714.714,0,0,0,24.97,114.3Z" transform="translate(-5.683 -96.066)"/>
    <path id="Path_24" data-name="Path 24" class="cls-1" d="M5.617,18.971,5.6,22.282a.719.719,0,0,0,.2.509A.68.68,0,0,0,6.3,23l3.294-.017a.68.68,0,0,0,.492-.2L21.457,11.4a.717.717,0,0,0,0-1L18.2,7.1a.717.717,0,0,0-1,0L14.921,9.4l-9.1,9.083a.756.756,0,0,0-.2.492ZM17.705,8.6,20,10.89l-1.29,1.29L16.415,9.888ZM7.026,19.277l8.387-8.387,2.292,2.292-8.387,8.37-2.309.017Z" transform="translate(-5.6 -6.9)"/>
  </g>
</svg>
